<svg id="half-star" viewBox="0 0 17 15" xmlns="http://www.w3.org/2000/svg"><g fill-rule="nonzero" fill="none"><path d="M8.5 12.85l-4.378 2.214a.355.355 0 01-.512-.371l.753-4.849-3.459-3.48a.355.355 0 01.195-.601l4.844-.782L8.183.616a.355.355 0 01.633 0l2.241 4.365 4.844.782a.355.355 0 01.195.601l-3.459 3.48.753 4.849a.355.355 0 01-.512.371L8.5 12.85z" fill="#D5D5D5"></path><path d="M8.5 12.848l-4.38 2.214a.355.355 0 01-.51-.372l.752-4.848-3.459-3.48A.355.355 0 011.1 5.76l4.843-.782L8.183.613A.355.355 0 018.498.42" fill="#FFB401"></path></g></svg>